<?xml version="1.0" encoding="UTF-8" standalone="no"?>
<!DOCTYPE svg PUBLIC "-//W3C//DTD SVG 1.1//EN"
 "http://www.w3.org/Graphics/SVG/1.1/DTD/svg11.dtd">
<!-- Generated by graphviz version 2.38.0 (20140413.2041)
 -->
<!-- Title: dependencies Pages: 1 -->
<svg width="1896pt" height="284pt"
 viewBox="0.00 0.00 1896.00 284.00" xmlns="http://www.w3.org/2000/svg" xmlns:xlink="http://www.w3.org/1999/xlink">
<g id="graph0" class="graph" transform="scale(1 1) rotate(0) translate(4 280)">
<title>dependencies</title>
<polygon fill="white" stroke="none" points="-4,4 -4,-280 1892,-280 1892,4 -4,4"/>
<text text-anchor="start" x="923.009" y="-42.4" font-family="sans-serif" font-weight="bold" font-size="14.00">Legend</text>
<polygon fill="#ffffb3" stroke="none" points="710,-10 710,-30 730,-30 730,-10 710,-10"/>
<text text-anchor="start" x="733.629" y="-15.4" font-family="sans-serif" font-size="14.00"> &#160;Declarations</text>
<polygon fill="#8dd3c7" stroke="none" points="823,-10 823,-30 843,-30 843,-10 823,-10"/>
<text text-anchor="start" x="846.725" y="-15.4" font-family="sans-serif" font-size="14.00"> &#160;Module</text>
<polygon fill="#80b1d3" stroke="none" points="909,-10 909,-30 929,-30 929,-10 909,-10"/>
<text text-anchor="start" x="932.781" y="-15.4" font-family="sans-serif" font-size="14.00"> &#160;Bootstrap</text>
<polygon fill="#fdb462" stroke="none" points="1006,-10 1006,-30 1026,-30 1026,-10 1006,-10"/>
<text text-anchor="start" x="1029.67" y="-15.4" font-family="sans-serif" font-size="14.00"> &#160;Providers</text>
<polygon fill="#fb8072" stroke="none" points="1102,-10 1102,-30 1122,-30 1122,-10 1102,-10"/>
<text text-anchor="start" x="1125.73" y="-15.4" font-family="sans-serif" font-size="14.00"> &#160;Exports</text>
<g id="clust1" class="cluster"><title>cluster_AppRoutingModule</title>
<polygon fill="none" stroke="black" stroke-dasharray="1,5" points="8,-70 8,-268 218,-268 218,-70 8,-70"/>
</g>
<g id="clust3" class="cluster"><title>cluster_AppRoutingModule_imports</title>
<polygon fill="none" stroke="black" points="16,-78 16,-130 210,-130 210,-78 16,-78"/>
</g>
<g id="clust4" class="cluster"><title>cluster_AppRoutingModule_exports</title>
<polygon fill="none" stroke="black" points="54,-208 54,-260 172,-260 172,-208 54,-208"/>
</g>
<g id="clust7" class="cluster"><title>cluster_AppModule</title>
<polygon fill="none" stroke="black" stroke-dasharray="1,5" points="226,-70 226,-268 1880,-268 1880,-70 226,-70"/>
</g>
<g id="clust8" class="cluster"><title>cluster_AppModule_declarations</title>
<polygon fill="none" stroke="black" points="580,-78 580,-130 1872,-130 1872,-78 580,-78"/>
</g>
<g id="clust17" class="cluster"><title>cluster_AppModule_imports</title>
<polygon fill="none" stroke="black" points="234,-78 234,-130 572,-130 572,-78 234,-78"/>
</g>
<g id="clust19" class="cluster"><title>cluster_AppModule_bootstrap</title>
<polygon fill="none" stroke="black" points="974,-208 974,-260 1098,-260 1098,-208 974,-208"/>
</g>
<!-- RouterModule.forRoot(args) -->
<g id="node1" class="node"><title>RouterModule.forRoot(args)</title>
<polygon fill="#8dd3c7" stroke="black" points="201.842,-122 198.842,-126 177.842,-126 174.842,-122 24.1581,-122 24.1581,-86 201.842,-86 201.842,-122"/>
<text text-anchor="middle" x="113" y="-99.8" font-family="Times,serif" font-size="14.00">RouterModule.forRoot(args)</text>
</g>
<!-- AppRoutingModule -->
<g id="node2" class="node"><title>AppRoutingModule</title>
<polygon fill="#8dd3c7" stroke="black" points="177.274,-187 174.274,-191 153.274,-191 150.274,-187 48.7256,-187 48.7256,-151 177.274,-151 177.274,-187"/>
<text text-anchor="middle" x="113" y="-164.8" font-family="Times,serif" font-size="14.00">AppRoutingModule</text>
</g>
<!-- RouterModule.forRoot(args)&#45;&gt;AppRoutingModule -->
<g id="edge1" class="edge"><title>RouterModule.forRoot(args)&#45;&gt;AppRoutingModule</title>
<path fill="none" stroke="black" d="M113,-122.106C113,-122.106 113,-140.991 113,-140.991"/>
<polygon fill="black" stroke="black" points="109.5,-140.991 113,-150.991 116.5,-140.991 109.5,-140.991"/>
</g>
<!-- RouterModule  -->
<g id="node3" class="node"><title>RouterModule </title>
<polygon fill="#fb8072" stroke="black" points="163.652,-252 62.3477,-252 62.3477,-216 163.652,-216 163.652,-252"/>
<text text-anchor="middle" x="113" y="-229.8" font-family="Times,serif" font-size="14.00">RouterModule </text>
</g>
<!-- AppRoutingModule&#45;&gt;RouterModule  -->
<g id="edge2" class="edge"><title>AppRoutingModule&#45;&gt;RouterModule </title>
<path fill="none" stroke="black" stroke-dasharray="5,2" d="M113,-187.106C113,-187.106 113,-205.991 113,-205.991"/>
<polygon fill="black" stroke="black" points="109.5,-205.991 113,-215.991 116.5,-205.991 109.5,-205.991"/>
</g>
<!-- AppComponent -->
<g id="node4" class="node"><title>AppComponent</title>
<polygon fill="#ffffb3" stroke="black" points="1863.94,-122 1758.06,-122 1758.06,-86 1863.94,-86 1863.94,-122"/>
<text text-anchor="middle" x="1811" y="-99.8" font-family="Times,serif" font-size="14.00">AppComponent</text>
</g>
<!-- AppModule -->
<g id="node12" class="node"><title>AppModule</title>
<polygon fill="#8dd3c7" stroke="black" points="1077.66,-187 1074.66,-191 1053.66,-191 1050.66,-187 994.343,-187 994.343,-151 1077.66,-151 1077.66,-187"/>
<text text-anchor="middle" x="1036" y="-164.8" font-family="Times,serif" font-size="14.00">AppModule</text>
</g>
<!-- AppComponent&#45;&gt;AppModule -->
<g id="edge3" class="edge"><title>AppComponent&#45;&gt;AppModule</title>
<path fill="none" stroke="black" d="M1811,-122.248C1811,-145.018 1811,-181 1811,-181 1811,-181 1087.67,-181 1087.67,-181"/>
<polygon fill="black" stroke="black" points="1087.67,-177.5 1077.67,-181 1087.67,-184.5 1087.67,-177.5"/>
</g>
<!-- HeaderComponent -->
<g id="node5" class="node"><title>HeaderComponent</title>
<polygon fill="#ffffb3" stroke="black" points="1739.74,-122 1618.26,-122 1618.26,-86 1739.74,-86 1739.74,-122"/>
<text text-anchor="middle" x="1679" y="-99.8" font-family="Times,serif" font-size="14.00">HeaderComponent</text>
</g>
<!-- HeaderComponent&#45;&gt;AppModule -->
<g id="edge4" class="edge"><title>HeaderComponent&#45;&gt;AppModule</title>
<path fill="none" stroke="black" d="M1679,-122.284C1679,-143.321 1679,-175 1679,-175 1679,-175 1087.69,-175 1087.69,-175"/>
<polygon fill="black" stroke="black" points="1087.69,-171.5 1077.69,-175 1087.69,-178.5 1087.69,-171.5"/>
</g>
<!-- RecipesComponent -->
<g id="node6" class="node"><title>RecipesComponent</title>
<polygon fill="#ffffb3" stroke="black" points="1599.65,-122 1474.35,-122 1474.35,-86 1599.65,-86 1599.65,-122"/>
<text text-anchor="middle" x="1537" y="-99.8" font-family="Times,serif" font-size="14.00">RecipesComponent</text>
</g>
<!-- RecipesComponent&#45;&gt;AppModule -->
<g id="edge5" class="edge"><title>RecipesComponent&#45;&gt;AppModule</title>
<path fill="none" stroke="black" d="M1537,-122.106C1537,-141.339 1537,-169 1537,-169 1537,-169 1087.85,-169 1087.85,-169"/>
<polygon fill="black" stroke="black" points="1087.85,-165.5 1077.85,-169 1087.85,-172.5 1087.85,-165.5"/>
</g>
<!-- RecipesListComponent -->
<g id="node7" class="node"><title>RecipesListComponent</title>
<polygon fill="#ffffb3" stroke="black" points="1455.93,-122 1308.07,-122 1308.07,-86 1455.93,-86 1455.93,-122"/>
<text text-anchor="middle" x="1382" y="-99.8" font-family="Times,serif" font-size="14.00">RecipesListComponent</text>
</g>
<!-- RecipesListComponent&#45;&gt;AppModule -->
<g id="edge6" class="edge"><title>RecipesListComponent&#45;&gt;AppModule</title>
<path fill="none" stroke="black" d="M1382,-122.023C1382,-139.373 1382,-163 1382,-163 1382,-163 1087.74,-163 1087.74,-163"/>
<polygon fill="black" stroke="black" points="1087.74,-159.5 1077.74,-163 1087.74,-166.5 1087.74,-159.5"/>
</g>
<!-- RecipesDetailComponent -->
<g id="node8" class="node"><title>RecipesDetailComponent</title>
<polygon fill="#ffffb3" stroke="black" points="1289.86,-122 1130.14,-122 1130.14,-86 1289.86,-86 1289.86,-122"/>
<text text-anchor="middle" x="1210" y="-99.8" font-family="Times,serif" font-size="14.00">RecipesDetailComponent</text>
</g>
<!-- RecipesDetailComponent&#45;&gt;AppModule -->
<g id="edge7" class="edge"><title>RecipesDetailComponent&#45;&gt;AppModule</title>
<path fill="none" stroke="black" d="M1210,-122.24C1210,-137.571 1210,-157 1210,-157 1210,-157 1087.68,-157 1087.68,-157"/>
<polygon fill="black" stroke="black" points="1087.68,-153.5 1077.68,-157 1087.68,-160.5 1087.68,-153.5"/>
</g>
<!-- RecipesItemComponent -->
<g id="node9" class="node"><title>RecipesItemComponent</title>
<polygon fill="#ffffb3" stroke="black" points="1111.8,-122 960.195,-122 960.195,-86 1111.8,-86 1111.8,-122"/>
<text text-anchor="middle" x="1036" y="-99.8" font-family="Times,serif" font-size="14.00">RecipesItemComponent</text>
</g>
<!-- RecipesItemComponent&#45;&gt;AppModule -->
<g id="edge8" class="edge"><title>RecipesItemComponent&#45;&gt;AppModule</title>
<path fill="none" stroke="black" d="M1036,-122.106C1036,-122.106 1036,-140.991 1036,-140.991"/>
<polygon fill="black" stroke="black" points="1032.5,-140.991 1036,-150.991 1039.5,-140.991 1032.5,-140.991"/>
</g>
<!-- ShoppingListComponent -->
<g id="node10" class="node"><title>ShoppingListComponent</title>
<polygon fill="#ffffb3" stroke="black" points="942.284,-122 785.716,-122 785.716,-86 942.284,-86 942.284,-122"/>
<text text-anchor="middle" x="864" y="-99.8" font-family="Times,serif" font-size="14.00">ShoppingListComponent</text>
</g>
<!-- ShoppingListComponent&#45;&gt;AppModule -->
<g id="edge9" class="edge"><title>ShoppingListComponent&#45;&gt;AppModule</title>
<path fill="none" stroke="black" d="M864,-122.24C864,-137.571 864,-157 864,-157 864,-157 983.924,-157 983.924,-157"/>
<polygon fill="black" stroke="black" points="983.924,-160.5 993.924,-157 983.924,-153.5 983.924,-160.5"/>
</g>
<!-- ShoppingListEditComponent -->
<g id="node11" class="node"><title>ShoppingListEditComponent</title>
<polygon fill="#ffffb3" stroke="black" points="768.118,-122 587.882,-122 587.882,-86 768.118,-86 768.118,-122"/>
<text text-anchor="middle" x="678" y="-99.8" font-family="Times,serif" font-size="14.00">ShoppingListEditComponent</text>
</g>
<!-- ShoppingListEditComponent&#45;&gt;AppModule -->
<g id="edge10" class="edge"><title>ShoppingListEditComponent&#45;&gt;AppModule</title>
<path fill="none" stroke="black" d="M678,-122.023C678,-139.373 678,-163 678,-163 678,-163 984.232,-163 984.232,-163"/>
<polygon fill="black" stroke="black" points="984.232,-166.5 994.232,-163 984.232,-159.5 984.232,-166.5"/>
</g>
<!-- AppComponent  -->
<g id="node16" class="node"><title>AppComponent </title>
<polygon fill="#80b1d3" stroke="black" points="1090.44,-252 981.561,-252 981.561,-216 1090.44,-216 1090.44,-252"/>
<text text-anchor="middle" x="1036" y="-229.8" font-family="Times,serif" font-size="14.00">AppComponent </text>
</g>
<!-- AppModule&#45;&gt;AppComponent  -->
<g id="edge14" class="edge"><title>AppModule&#45;&gt;AppComponent </title>
<path fill="none" stroke="black" stroke-dasharray="1,5" d="M1036,-187.106C1036,-187.106 1036,-205.991 1036,-205.991"/>
<polygon fill="black" stroke="black" points="1032.5,-205.991 1036,-215.991 1039.5,-205.991 1032.5,-205.991"/>
</g>
<!-- BrowserModule -->
<g id="node13" class="node"><title>BrowserModule</title>
<polygon fill="#8dd3c7" stroke="black" points="564.473,-122 561.473,-126 540.473,-126 537.473,-122 457.527,-122 457.527,-86 564.473,-86 564.473,-122"/>
<text text-anchor="middle" x="511" y="-99.8" font-family="Times,serif" font-size="14.00">BrowserModule</text>
</g>
<!-- BrowserModule&#45;&gt;AppModule -->
<g id="edge11" class="edge"><title>BrowserModule&#45;&gt;AppModule</title>
<path fill="none" stroke="black" d="M511,-122.106C511,-141.339 511,-169 511,-169 511,-169 983.925,-169 983.925,-169"/>
<polygon fill="black" stroke="black" points="983.925,-172.5 993.925,-169 983.924,-165.5 983.925,-172.5"/>
</g>
<!-- FormsModule -->
<g id="node14" class="node"><title>FormsModule</title>
<polygon fill="#8dd3c7" stroke="black" points="439.829,-122 436.829,-126 415.829,-126 412.829,-122 344.171,-122 344.171,-86 439.829,-86 439.829,-122"/>
<text text-anchor="middle" x="392" y="-99.8" font-family="Times,serif" font-size="14.00">FormsModule</text>
</g>
<!-- FormsModule&#45;&gt;AppModule -->
<g id="edge12" class="edge"><title>FormsModule&#45;&gt;AppModule</title>
<path fill="none" stroke="black" d="M392,-122.284C392,-143.321 392,-175 392,-175 392,-175 984.242,-175 984.242,-175"/>
<polygon fill="black" stroke="black" points="984.242,-178.5 994.242,-175 984.242,-171.5 984.242,-178.5"/>
</g>
<!-- HttpModule -->
<g id="node15" class="node"><title>HttpModule</title>
<polygon fill="#8dd3c7" stroke="black" points="326.439,-122 323.439,-126 302.439,-126 299.439,-122 241.561,-122 241.561,-86 326.439,-86 326.439,-122"/>
<text text-anchor="middle" x="284" y="-99.8" font-family="Times,serif" font-size="14.00">HttpModule</text>
</g>
<!-- HttpModule&#45;&gt;AppModule -->
<g id="edge13" class="edge"><title>HttpModule&#45;&gt;AppModule</title>
<path fill="none" stroke="black" d="M284,-122.248C284,-145.018 284,-181 284,-181 284,-181 984.228,-181 984.228,-181"/>
<polygon fill="black" stroke="black" points="984.228,-184.5 994.228,-181 984.228,-177.5 984.228,-184.5"/>
</g>
</g>
</svg>
